<?xml version="1.0" encoding="utf-8"?>
<!-- Generator: Adobe Illustrator 24.3.0, SVG Export Plug-In . SVG Version: 6.00 Build 0)  -->
<svg version="1.1" id="Layer_1" xmlns="http://www.w3.org/2000/svg" xmlns:xlink="http://www.w3.org/1999/xlink" x="0px" y="0px"
	 viewBox="0 0 493.6 180.9" style="enable-background:new 0 0 493.6 180.9;" xml:space="preserve">
<style type="text/css">
	.st0{fill:none;stroke:#000000;stroke-miterlimit:10;}
	.st1{fill:none;stroke:#ED2024;stroke-miterlimit:10;}
	.st2{fill:none;stroke:#ED2024;stroke-miterlimit:10;stroke-dasharray:1.9079,0.954;}
	.st3{fill:none;stroke:#ED2024;stroke-miterlimit:10;stroke-dasharray:1.7269,0.8635;}
	.st4{fill:none;stroke:#ED2024;stroke-miterlimit:10;stroke-dasharray:1.8405,0.9203;}
	.st5{fill:none;stroke:#ED2024;stroke-miterlimit:10;stroke-dasharray:1.9326,0.9663;}
	.st6{fill:none;stroke:#ED2024;stroke-miterlimit:10;stroke-dasharray:1.9744,0.9872;}
	.st7{fill:none;stroke:#ED2024;stroke-miterlimit:10;stroke-dasharray:1.9891,0.9946;}
	.st8{fill:none;stroke:#ED2024;stroke-miterlimit:10;stroke-dasharray:1.8734,0.9367;}
	.st9{fill:none;stroke:#ED2024;stroke-miterlimit:10;stroke-dasharray:1.7554,0.8777;}
	.st10{fill:none;stroke:#ED2024;stroke-miterlimit:10;stroke-dasharray:1.5908,0.7954;}
	.st11{fill:none;stroke:#ED2024;stroke-miterlimit:10;stroke-dasharray:1.9168,0.9584;}
	.st12{fill:none;stroke:#ED2024;stroke-miterlimit:10;stroke-dasharray:2.4952,1.2476;}
	.st13{fill:none;stroke:#ED2024;stroke-miterlimit:10;stroke-dasharray:1.8615,0.9307;}
	.st14{fill:none;stroke:#ED2024;stroke-miterlimit:10;stroke-dasharray:2.5249,1.2625;}
	.st15{fill:none;stroke:#ED2024;stroke-miterlimit:10;stroke-dasharray:1.5273,0.7637;}
	.st16{fill:none;stroke:#ED2024;stroke-miterlimit:10;stroke-dasharray:2.0982,1.0491;}
	.st17{font-family:'ArialMT';}
	.st18{font-size:12px;}
	.st19{font-size:6.996px;}
	.st20{fill:#EE1E53;}
	.st21{font-size:9.9369px;}
	.st22{font-family:'NirmalaUI';}
	.st23{font-size:11.085px;}
	.st24{fill:none;}
</style>
<path class="st0" d="M95.8,13.3l21.7,37.4c0.3,0.6,0.7,1.1,0.9,1.6c0.4,0.7,0.8,1.3,1.1,1.9c0.2,0.3,0.3,0.6,0.5,0.8
	c0.2,0.3,0.3,0.5,0.4,0.8c0.1,0.1,0.1,0.2,0.2,0.3c0.6,1.1,0.9,1.5,0.9,1.5l5.7,1.9c0,0,0,0-2.9,10.9c11,2.9,11.1,3.1,11.1,3.1
	s0.1,0.2-2.8,11.1c11,2.9,11.1,3.1,11.1,3.1s0.1,0.2-2.8,11.1c11,2.9,11.1,3.1,11.1,3.1c-1.4,5.3-1.4,5.5-1.4,5.5
	c0.3,0.6,0.7,1.3,1,1.8c0.4,0.7,0.8,1.3,1.1,1.9c0.2,0.3,0.3,0.6,0.5,0.8c0.2,0.3,0.3,0.5,0.4,0.8c0.1,0.1,0.1,0.2,0.2,0.3
	c0.6,1.1,0.6,1.1,0.6,1.1l21.7,37.4h-43.4c0,0,0,0-1.2,0c-0.1,0-0.2,0-0.4,0c-0.3,0-0.5,0-0.9,0c-0.3,0-0.6,0-1,0
	c-0.6,0-1.3,0-2.1,0c-0.6,0-1.4-0.1-2.1-0.1c0,0-0.2-0.1-4.1-3.9c0,0-0.2,0-8.2,8c-8-8-8.2-8-8.2-8s-0.2,0-8.2,8c-8-8-8.2-8-8.2-8
	s-0.2,0-8.2,8c-8-8-8-8-8-8l-4.5,4c0,0-0.5,0-1.7,0c-0.1,0-0.2,0-0.4,0c-0.3,0-0.5,0-0.9,0c-0.3,0-0.6,0-1,0c-0.6,0-1.3,0-2.1,0
	c-0.6,0-1.2,0-1.9,0H16L37.4,114c0.3-0.6,0.7-1.1,0.9-1.6c0.4-0.7,0.8-1.3,1.1-1.9c0.2-0.3,0.3-0.6,0.5-0.8c0.2-0.3,0.3-0.5,0.4-0.8
	c0.1-0.1,0.1-0.2,0.2-0.3c0.6-1.1,0.8-1.5,0.8-1.5l-1.2-5.8c0,0,0,0,11-2.9c-2.9-10.9-2.8-11.1-2.8-11.1s0.1-0.2,11.1-3.1
	c-3-11-2.9-11.2-2.9-11.2s0.1-0.2,11.1-3.1c-2.9-10.9-2.8-11.1-2.8-11.1c5.3-1.4,5.4-1.5,5.4-1.5c0.3-0.6,0.8-1.3,1.1-1.7
	c0.4-0.7,0.8-1.3,1.1-1.9c0.2-0.3,0.3-0.6,0.5-0.8c0.2-0.3,0.3-0.5,0.4-0.8c0.1-0.1,0.1-0.2,0.2-0.3c0.6-1.1,0.6-1.1,0.6-1.1
	L95.8,13.3"/>
<g>
	<g>
		<g>
			<line class="st1" x1="15.7" y1="151.5" x2="16.5" y2="150.9"/>
			<path class="st2" d="M17.3,150.3L37.4,136c0.3-0.2,0.7-0.5,0.9-0.7c0.4-0.3,0.8-0.6,1.1-0.8c0.2-0.1,0.3-0.2,0.5-0.3
				c0.1-0.1,0.2-0.1,0.3-0.2"/>
			<path class="st1" d="M40.6,133.7c0.6-0.4,0.8-0.6,0.8-0.6l0.1-1"/>
			<path class="st1" d="M41.6,131.1l0.1-1c0,0,0,0,1,0"/>
			<path class="st3" d="M43.5,130.1c1,0,2.5,0,4.7,0"/>
			<path class="st1" d="M48.7,130.1c0.3,0,0.7,0,1,0c0-0.4,0-0.7,0-1"/>
			<path class="st4" d="M49.7,128.2c0-3.8,0.1-3.9,0.1-3.9s0.1-0.1,6.7-0.1"/>
			<path class="st1" d="M56.9,124.2c0.3,0,0.7,0,1,0c0-0.4,0-0.7,0-1"/>
			<path class="st4" d="M57.9,122.3c0-3.8,0.1-3.9,0.1-3.9s0.1-0.1,6.7-0.1"/>
			<path class="st1" d="M65.2,118.3c0.3,0,0.7,0,1,0c0-0.4,0-0.7,0-1"/>
			<path class="st5" d="M66.2,116.3c0-3.8,0.1-3.9,0.1-3.9c3.9,0,4,0,4,0c0.3-0.2,0.8-0.5,1.1-0.7c0.4-0.3,0.8-0.6,1.1-0.8
				c0.2-0.1,0.3-0.2,0.5-0.3l0,0"/>
			<path class="st1" d="M73.3,110.3c0.1,0,0.1-0.1,0.2-0.1c0.6-0.4,0.6-0.4,0.6-0.4l0.8-0.6"/>
			<line class="st6" x1="75.8" y1="108.6" x2="94.6" y2="95.1"/>
			<line class="st1" x1="95" y1="94.8" x2="95.8" y2="94.2"/>
		</g>
	</g>
	<g>
		<g>
			<line class="st1" x1="95.8" y1="94.2" x2="96.7" y2="94.8"/>
			<path class="st7" d="M97.5,95.4l20.1,14.3c0.3,0.2,0.7,0.5,0.9,0.7c0.4,0.3,0.8,0.6,1.1,0.8c0.2,0.1,0.3,0.2,0.5,0.3
				c0.2,0.1,0.3,0.2,0.4,0.3c0.1,0,0.1,0.1,0.2,0.1c0.6,0.4,0.9,0.6,0.9,0.6l2.7,0.1"/>
			<path class="st1" d="M124.8,112.7h1c0,0,0,0,0,1"/>
			<path class="st8" d="M125.8,114.7c0,0.6,0,1.3,0,2.3"/>
			<path class="st1" d="M125.8,117.5c0,0.3,0,0.6,0,1c0.3,0,0.7,0,1,0"/>
			<path class="st4" d="M127.7,118.5c6.1,0,6.2,0.1,6.2,0.1s0.1,0.1,0.1,4.4"/>
			<path class="st1" d="M134,123.4c0,0.3,0,0.6,0,1c0.3,0,0.7,0,1,0"/>
			<path class="st4" d="M136,124.4c6.1,0,6.2,0.1,6.2,0.1s0.1,0.1,0.1,4.4"/>
			<path class="st1" d="M142.3,129.2c0,0.3,0,0.6,0,1c0.3,0,0.7,0,1,0"/>
			<path class="st9" d="M144.2,130.2c2.4,0,3.9,0,4.8,0"/>
			<path class="st1" d="M149.4,130.3c1,0,1,0,1,0c0,0.4,0,0.7,0,1"/>
			<path class="st10" d="M150.4,132.1c0,1,0,1.1,0,1.1c0.3,0.2,0.7,0.6,1,0.8c0.4,0.3,0.8,0.6,1.1,0.8c0.2,0.1,0.3,0.2,0.5,0.3
				l0.1,0.1"/>
			<path class="st1" d="M153.5,135.4c0.1,0,0.1,0.1,0.2,0.1c0.6,0.4,0.6,0.4,0.6,0.4l0.8,0.6"/>
			<line class="st6" x1="155.9" y1="137.1" x2="174.8" y2="150.6"/>
			<line class="st1" x1="175.2" y1="150.9" x2="176" y2="151.5"/>
		</g>
	</g>
	<g>
		<g>
			<line class="st1" x1="95.8" y1="13.3" x2="95.8" y2="14.3"/>
			<path class="st11" d="M95.8,15.2v20c0,0.3,0,0.7,0,0.9c0,0.4,0,0.8,0,1.1c0,0.2,0,0.3,0,0.5l0,0"/>
			<path class="st1" d="M95.8,38.2L95.8,38.2c0,0.7,0,1,0,1l0.8,0.6"/>
			<path class="st1" d="M97.9,40.8l0.8,0.6c0,0,0,0-0.8,0.6"/>
			<path class="st12" d="M96.9,42.8c-0.6,0.4-1.4,1-2.5,1.8"/>
			<path class="st1" d="M93.8,44.9c-0.3,0.2-0.5,0.4-0.8,0.6c0.3,0.2,0.6,0.4,0.8,0.6"/>
			<path class="st13" d="M94.6,46.7c4.1,3,4.1,3,4.1,3s0,0.1-4.5,3.3"/>
			<path class="st1" d="M93.8,53.3c-0.3,0.2-0.5,0.4-0.8,0.6c0.3,0.2,0.6,0.4,0.8,0.6"/>
			<path class="st13" d="M94.6,55c4.1,3,4.1,3,4.1,3s0,0.1-4.5,3.3"/>
			<path class="st1" d="M93.8,61.6c-0.3,0.2-0.5,0.4-0.8,0.6c0.3,0.2,0.6,0.4,0.8,0.6"/>
			<path class="st14" d="M94.8,63.5c1.2,0.8,2,1.4,2.6,1.9"/>
			<path class="st1" d="M97.9,65.7c0.8,0.6,0.8,0.6,0.8,0.6c-0.3,0.2-0.6,0.4-0.8,0.6"/>
			<path class="st15" d="M97.3,67.4c-1.3,1-1.4,1-1.4,1c0,0.3-0.1,0.8-0.1,1c0,0.4,0,0.8,0,1.1c0,0.1,0,0.3,0,0.4"/>
			<path class="st1" d="M95.8,71.3c0,0.1,0,0.1,0,0.2s0,0.1,0,0.2c0,0.6,0,0.6,0,0.6v1"/>
			<line class="st16" x1="95.8" y1="74.3" x2="95.8" y2="92.7"/>
			<line class="st1" x1="95.8" y1="93.2" x2="95.8" y2="94.2"/>
		</g>
	</g>
</g>
<text transform="matrix(1.0043 0 0 1 40.188 74.9663)" class="st17 st18">R</text>
<text transform="matrix(1.0043 0 0 1 46.6719 78.9624)" class="st17 st19">1</text>
<text transform="matrix(0.9925 0 0 1 142.9648 74.9658)" class="st17 st18">R</text>
<text transform="matrix(0.9925 0 0 1 149.373 78.9619)" class="st17 st19">2</text>
<text transform="matrix(1.0043 0 0 1 93.0054 170.2153)" class="st17 st18">R</text>
<text transform="matrix(1.0043 0 0 1 99.4893 174.2114)" class="st17 st19">3</text>
<text transform="matrix(1.0043 0 0 1 76.2261 56.373)" class="st20 st17 st21">P=?</text>
<text transform="matrix(1.0043 0 0 1 379.4424 56.373)" class="st20 st22 st18">P</text>
<text transform="matrix(1.0043 0 0 1 115.3301 131.3271)" class="st20 st17 st21">Q=?</text>
<text transform="matrix(1.0043 0 0 1 442.0563 122.3)" class="st20 st17 st18">Q</text>
<text transform="matrix(1.0043 0 0 1 62.3525 131.436)" class="st20 st17 st21">R=?</text>
<text transform="matrix(1.0043 0 0 1 360.0257 137.1)" class="st20 st17 st18">R</text>
<text transform="matrix(1.0043 0 0 1 6.9385 155.4663)" class="st17 st21">b</text>
<text transform="matrix(1.0043 0 0 1 308.2656 158.6836)" class="st17 st21">b</text>
<text transform="matrix(1.0043 0 0 1 93.0059 10.0654)" class="st17 st21">a</text>
<text transform="matrix(1.0043 0 0 1 393.2246 13.251)" class="st17 st21">a</text>
<text transform="matrix(0.9002 0 0 1 179.606 155.8032)" class="st17 st23">c</text>
<text transform="matrix(0.9002 0 0 1 479.8662 158.6836)" class="st17 st23">c</text>
<line class="st24" x1="212.5" y1="87.1" x2="252" y2="87.1"/>
<g>
	<g>
		<line class="st0" x1="208.3" y1="80.3" x2="264.1" y2="80.3"/>
		<g>
			<polygon points="271.2,80.3 261.2,84.4 263.6,80.3 261.2,76.3 			"/>
		</g>
	</g>
</g>
<g>
	<path class="st0" d="M315.9,153.5l21.7-15.5c0.3-0.2,0.7-0.5,0.9-0.7c0.4-0.3,0.8-0.6,1.1-0.8c0.2-0.1,0.3-0.2,0.5-0.3
		s0.3-0.2,0.4-0.3c0.1,0,0.1-0.1,0.2-0.1c0.6-0.4,0.9-0.6,0.9-0.6l0.2-3c0,0,0,0,8,0c0-5.7,0.1-5.8,0.1-5.8s0.1-0.1,8.1-0.1
		c0-5.7,0.1-5.8,0.1-5.8s0.1-0.1,8.1-0.1c0-5.7,0.1-5.8,0.1-5.8c3.9,0,4,0,4,0c0.3-0.2,0.8-0.5,1.1-0.7c0.4-0.3,0.8-0.6,1.1-0.8
		c0.2-0.1,0.3-0.2,0.5-0.3c0.2-0.1,0.3-0.2,0.4-0.3c0.1,0,0.1-0.1,0.2-0.1c0.6-0.4,0.6-0.4,0.6-0.4l21.7-15.5"/>
	<path class="st0" d="M396.1,96.2l21.7,15.5c0.3,0.2,0.7,0.5,0.9,0.7c0.4,0.3,0.8,0.6,1.1,0.8c0.2,0.1,0.3,0.2,0.5,0.3
		c0.2,0.1,0.3,0.2,0.4,0.3c0.1,0,0.1,0.1,0.2,0.1c0.6,0.4,0.9,0.6,0.9,0.6l4.2,0.2c0,0,0,0,0,5.7c8,0,8.1,0.1,8.1,0.1
		s0.1,0.1,0.1,5.8c8,0,8.1,0.1,8.1,0.1s0.1,0.1,0.1,5.8c8,0,8.1,0.1,8.1,0.1c0,2.8,0.1,2.9,0.1,2.9c0.3,0.2,0.7,0.6,1,0.8
		c0.4,0.3,0.8,0.6,1.1,0.8c0.2,0.1,0.3,0.2,0.5,0.3s0.3,0.2,0.4,0.3c0.1,0,0.1,0.1,0.2,0.1c0.6,0.4,0.6,0.4,0.6,0.4l21.7,15.5"/>
	<path class="st0" d="M396.1,15.3v21.9c0,0.3,0,0.7,0,0.9c0,0.4,0,0.8,0,1.1c0,0.2,0,0.3,0,0.5s0,0.3,0,0.4c0,0.1,0,0.1,0,0.2
		c0,0.6,0,0.9,0,0.9l2.8,2.3c0,0,0,0-5.7,4.1c5.7,4.1,5.7,4.2,5.7,4.2s0,0.1-5.7,4.2c5.7,4.1,5.7,4.2,5.7,4.2s0,0.1-5.7,4.2
		c5.7,4.1,5.7,4.2,5.7,4.2c-2.7,2-2.8,2.1-2.8,2.1c0,0.3-0.1,0.8-0.1,1c0,0.4,0,0.8,0,1.1c0,0.2,0,0.3,0,0.5s0,0.3,0,0.4
		s0,0.1,0,0.2c0,0.6,0,0.6,0,0.6v21.9"/>
</g>
</svg>
