<?xml version="1.0" encoding="utf-8"?>
<!-- Generator: Adobe Illustrator 24.3.0, SVG Export Plug-In . SVG Version: 6.00 Build 0)  -->
<svg version="1.1" id="Layer_1" xmlns="http://www.w3.org/2000/svg" xmlns:xlink="http://www.w3.org/1999/xlink" x="0px" y="0px"
	 viewBox="0 0 490.7 192.9" style="enable-background:new 0 0 490.7 192.9;" xml:space="preserve">
<style type="text/css">
	.st0{fill:none;stroke:#E52625;stroke-miterlimit:10;}
	.st1{fill:none;stroke:#E52625;stroke-miterlimit:10;stroke-dasharray:2.045,2.045;}
	.st2{fill:none;stroke:#E52625;stroke-miterlimit:10;stroke-dasharray:1.8663,1.8663;}
	.st3{fill:none;stroke:#E52625;stroke-miterlimit:10;stroke-dasharray:1.9079,1.9079;}
	.st4{fill:none;stroke:#E52625;stroke-miterlimit:10;stroke-dasharray:1.9029,1.9029;}
	.st5{fill:none;stroke:#E52625;stroke-miterlimit:10;stroke-dasharray:2.2602,2.2602;}
	.st6{fill:none;stroke:#E52625;stroke-miterlimit:10;stroke-dasharray:1.9657,1.9657;}
	.st7{fill:none;stroke:#E52625;stroke-miterlimit:10;stroke-dasharray:1.9723,1.9723;}
	.st8{fill:none;stroke:#E52625;stroke-miterlimit:10;stroke-dasharray:2.0756,2.0756;}
	.st9{fill:none;stroke:#E52625;stroke-miterlimit:10;stroke-dasharray:1.9081,1.9081;}
	.st10{fill:none;stroke:#E52625;stroke-miterlimit:10;stroke-dasharray:1.8704,1.8704;}
	.st11{fill:none;stroke:#E52625;stroke-miterlimit:10;stroke-dasharray:2.0507,2.0507;}
	.st12{fill:none;stroke:#E52625;stroke-miterlimit:10;stroke-dasharray:2.0441,2.0441;}
	.st13{fill:none;stroke:#E52625;stroke-miterlimit:10;stroke-dasharray:1.8746,1.8746;}
	.st14{fill:none;stroke:#E52625;stroke-miterlimit:10;stroke-dasharray:2.0723,2.0723;}
	.st15{fill:none;stroke:#000000;stroke-miterlimit:10;}
	.st16{font-family:'ArialMT';}
	.st17{font-size:9.9369px;}
	.st18{fill:#EE1E53;}
	.st19{font-size:12px;}
	.st20{font-size:10px;}
	.st21{fill:none;}
</style>
<g>
	<g>
		<line class="st0" x1="102.5" y1="26.8" x2="103" y2="27.6"/>
		<path class="st1" d="M104,29.4l20.2,34.8c0.3,0.6,0.7,1.1,0.9,1.6c0.4,0.7,0.8,1.3,1.1,1.9c0.2,0.3,0.3,0.6,0.5,0.8
			c0.2,0.3,0.3,0.5,0.4,0.8c0.1,0.1,0.1,0.2,0.2,0.3c0.6,1.1,0.9,1.5,0.9,1.5l3.8,1.2"/>
		<path class="st0" d="M132.9,72.6l1,0.3c0,0,0,0-0.3,1"/>
		<path class="st2" d="M133.2,75.7c-0.4,1.3-0.9,3.3-1.7,6.3"/>
		<path class="st0" d="M131.2,82.9c-0.1,0.3-0.2,0.6-0.3,1c0.3,0.1,0.7,0.2,1,0.3"/>
		<path class="st3" d="M133.8,84.6C142,86.8,142,87,142,87s0.1,0.2-2.3,9.2"/>
		<path class="st0" d="M139.5,97.1c-0.1,0.3-0.2,0.6-0.3,1c0.3,0.1,0.7,0.2,1,0.3"/>
		<path class="st3" d="M142,98.8c8.2,2.2,8.3,2.3,8.3,2.3s0.1,0.2-2.3,9.2"/>
		<path class="st0" d="M147.7,111.3c-0.1,0.3-0.2,0.6-0.3,1c0.3,0.1,0.7,0.2,1,0.3"/>
		<path class="st4" d="M150.2,113c3.3,0.9,5.2,1.4,6.4,1.8"/>
		<path class="st0" d="M157.6,115.1c0.9,0.3,0.9,0.3,0.9,0.3c-0.1,0.3-0.2,0.7-0.3,1"/>
		<path class="st5" d="M157.7,118.5c-0.6,2.2-0.5,2.3-0.5,2.3c0.3,0.6,0.7,1.3,1,1.8c0.4,0.7,0.8,1.3,1.1,1.9
			c0.2,0.3,0.3,0.6,0.5,0.8c0.1,0.1,0.1,0.2,0.2,0.3"/>
		<path class="st0" d="M160.4,126.7c0.5,0.9,0.5,0.9,0.5,0.9l0.5,0.9"/>
		<line class="st6" x1="162.4" y1="130.1" x2="181.6" y2="163.2"/>
		<polyline class="st0" points="182.1,164.1 182.6,165 181.6,165 		"/>
		<line class="st7" x1="179.7" y1="165" x2="141.2" y2="165"/>
		<path class="st0" d="M140.2,165h-1c0,0,0,0-1,0"/>
		<path class="st8" d="M136.1,165c-0.1,0-0.3,0-0.4,0c-0.6,0-1.3,0-2.1,0c-0.6,0-1.4-0.1-2.1-0.1c0,0-0.2-0.1-4.1-3.9
			c0,0-0.2,0-6.8,6.6"/>
		<path class="st0" d="M119.9,168.3c-0.2,0.2-0.5,0.5-0.7,0.7c-0.2-0.2-0.5-0.5-0.7-0.7"/>
		<path class="st9" d="M117.2,166.9c-6-6-6.2-6-6.2-6s-0.2,0-6.9,6.6"/>
		<path class="st0" d="M103.4,168.3c-0.2,0.2-0.5,0.5-0.7,0.7c-0.2-0.2-0.5-0.5-0.7-0.7"/>
		<path class="st9" d="M100.7,166.9c-6-6-6.2-6-6.2-6s-0.2,0-6.9,6.6"/>
		<path class="st0" d="M87,168.3c-0.2,0.2-0.5,0.5-0.7,0.7c-0.2-0.2-0.5-0.5-0.7-0.7"/>
		<path class="st10" d="M84.2,166.9c-2.3-2.3-3.8-3.8-4.6-4.6"/>
		<path class="st0" d="M78.9,161.7c-0.7-0.7-0.7-0.7-0.7-0.7l-0.7,0.7"/>
		<path class="st11" d="M75.9,163l-2.2,1.9c0,0-0.5,0-1.7,0c-0.1,0-0.2,0-0.4,0c-0.3,0-0.5,0-0.9,0c-0.3,0-0.6,0-1,0
			c-0.6,0-1.3,0-2.1,0c-0.6,0-1.2,0-1.9,0H24.4"/>
		<polyline class="st0" points="23.4,165 22.4,165 22.9,164.1 		"/>
		<path class="st12" d="M23.9,162.3l20.2-34.8c0.3-0.6,0.7-1.1,0.9-1.6c0.4-0.7,0.8-1.3,1.1-1.9c0.2-0.3,0.3-0.6,0.5-0.8
			c0.2-0.3,0.3-0.5,0.4-0.8c0.1-0.1,0.1-0.2,0.2-0.3c0.6-1.1,0.8-1.5,0.8-1.5l-0.8-3.9"/>
		<path class="st0" d="M47,115.8l-0.2-1c0,0,0,0,1-0.3"/>
		<path class="st13" d="M49.6,114.1c1.3-0.4,3.4-0.9,6.3-1.7"/>
		<path class="st0" d="M56.8,112.1c0.3-0.1,0.6-0.2,1-0.3c-0.1-0.3-0.2-0.7-0.3-1"/>
		<path class="st3" d="M57,109.1c-2.2-8.2-2.1-8.3-2.1-8.3s0.1-0.2,9.2-2.6"/>
		<path class="st0" d="M65.1,97.9c0.3-0.1,0.6-0.2,1-0.3c-0.1-0.3-0.2-0.7-0.3-1"/>
		<path class="st3" d="M65.3,94.8c-2.2-8.2-2.1-8.3-2.1-8.3s0.1-0.2,9.2-2.6"/>
		<path class="st0" d="M73.3,83.7c0.3-0.1,0.6-0.2,1-0.3c-0.1-0.3-0.2-0.7-0.3-1"/>
		<path class="st14" d="M73.5,80.5c-2.1-8-2.1-8.1-2.1-8.1c5.3-1.4,5.4-1.5,5.4-1.5c0.3-0.6,0.8-1.3,1.1-1.7
			c0.4-0.7,0.8-1.3,1.1-1.9c0.2-0.3,0.3-0.6,0.5-0.8c0.1-0.1,0.2-0.3,0.2-0.4"/>
		<path class="st0" d="M80.3,65.1c0.5-0.9,0.5-0.9,0.5-0.9l0.5-0.9"/>
		<line class="st6" x1="82.3" y1="61.6" x2="101.5" y2="28.5"/>
		<line class="st0" x1="102" y1="27.6" x2="102.5" y2="26.8"/>
	</g>
</g>
<g>
	<path class="st15" d="M22.4,165l21.7-15.5c0.3-0.2,0.7-0.5,0.9-0.7c0.4-0.3,0.8-0.6,1.1-0.8c0.2-0.1,0.3-0.2,0.5-0.3
		s0.3-0.2,0.4-0.3c0.1,0,0.1-0.1,0.2-0.1c0.6-0.4,0.9-0.6,0.9-0.6l0.2-3c0,0,0,0,8,0c0-5.7,0.1-5.8,0.1-5.8s0.1-0.1,8.1-0.1
		c0-5.7,0.1-5.8,0.1-5.8s0.1-0.1,8.1-0.1c0-5.7,0.1-5.8,0.1-5.8c3.9,0,4,0,4,0c0.3-0.2,0.8-0.5,1.1-0.7c0.4-0.3,0.8-0.6,1.1-0.8
		c0.2-0.1,0.3-0.2,0.5-0.3c0.2-0.1,0.3-0.2,0.4-0.3c0.1,0,0.1-0.1,0.2-0.1c0.6-0.4,0.6-0.4,0.6-0.4l21.7-15.5"/>
	<path class="st15" d="M102.5,107.7l21.7,15.5c0.3,0.2,0.7,0.5,0.9,0.7c0.4,0.3,0.8,0.6,1.1,0.8c0.2,0.1,0.3,0.2,0.5,0.3
		c0.2,0.1,0.3,0.2,0.4,0.3c0.1,0,0.1,0.1,0.2,0.1c0.6,0.4,0.9,0.6,0.9,0.6l4.2,0.2c0,0,0,0,0,5.7c8,0,8.1,0.1,8.1,0.1
		s0.1,0.1,0.1,5.8c8,0,8.1,0.1,8.1,0.1s0.1,0.1,0.1,5.8c8,0,8.1,0.1,8.1,0.1c0,2.8,0.1,2.9,0.1,2.9c0.3,0.2,0.7,0.6,1,0.8
		c0.4,0.3,0.8,0.6,1.1,0.8c0.2,0.1,0.3,0.2,0.5,0.3s0.3,0.2,0.4,0.3c0.1,0,0.1,0.1,0.2,0.1c0.6,0.4,0.6,0.4,0.6,0.4l21.7,15.5"/>
	<path class="st15" d="M102.5,26.8v21.9c0,0.3,0,0.7,0,0.9c0,0.4,0,0.8,0,1.1c0,0.2,0,0.3,0,0.5s0,0.3,0,0.4c0,0.1,0,0.1,0,0.2
		c0,0.6,0,0.9,0,0.9l2.8,2.3c0,0,0,0-5.7,4.1c5.7,4.1,5.7,4.2,5.7,4.2s0,0.1-5.7,4.2c5.7,4.1,5.7,4.2,5.7,4.2s0,0.1-5.7,4.2
		c5.7,4.1,5.7,4.2,5.7,4.2c-2.7,2-2.8,2.1-2.8,2.1c0,0.3-0.1,0.8-0.1,1c0,0.4,0,0.8,0,1.1c0,0.2,0,0.3,0,0.5s0,0.3,0,0.4
		s0,0.1,0,0.2c0,0.6,0,0.6,0,0.6v21.9"/>
</g>
<text transform="matrix(1.0043 0 0 1 106.1572 72.4663)" class="st16 st17">R1</text>
<text transform="matrix(1.0043 0 0 1 62.4248 147.3335)" class="st16 st17">R2</text>
<text transform="matrix(1.0043 0 0 1 131.7412 145.9429)" class="st16 st17">R3</text>
<text transform="matrix(1.0043 0 0 1 95.437 178.8228)" class="st18 st16 st17">P=?</text>
<text transform="matrix(1.0043 0 0 1 146.6201 95.2739)" class="st18 st16 st17">Q=?</text>
<text transform="matrix(1.0043 0 0 1 39.5049 96.4287)" class="st18 st16 st17">R=?</text>
<path class="st15" d="M385.2,19.8l22.6,39c0.4,0.6,0.7,1.2,1,1.7c0.4,0.7,0.8,1.4,1.1,1.9c0.2,0.3,0.4,0.6,0.5,0.9
	c0.2,0.3,0.3,0.6,0.5,0.8c0.1,0.1,0.1,0.2,0.2,0.3c0.6,1.1,0.9,1.5,0.9,1.5l5.9,1.9c0,0,0,0-3.1,11.4c11.4,3.1,11.5,3.2,11.5,3.2
	s0.1,0.2-3,11.6c11.4,3.1,11.5,3.2,11.5,3.2s0.1,0.2-3,11.6c11.4,3.1,11.5,3.2,11.5,3.2c-1.5,5.5-1.4,5.7-1.4,5.7
	c0.4,0.6,0.7,1.4,1,1.9c0.4,0.7,0.8,1.4,1.1,1.9c0.2,0.3,0.4,0.6,0.5,0.9c0.2,0.3,0.3,0.6,0.5,0.8c0.1,0.1,0.1,0.2,0.2,0.3
	c0.6,1.1,0.6,1.1,0.6,1.1l22.6,39h-45.2c0,0,0,0-1.3,0c-0.1,0-0.2,0-0.4,0c-0.3,0-0.6,0-0.9,0s-0.6,0-1,0c-0.6,0-1.4,0-2.2,0
	c-0.6,0-1.4-0.1-2.2-0.1c0,0-0.2-0.1-4.2-4.1c0,0-0.2,0-8.6,8.3c-8.4-8.3-8.6-8.3-8.6-8.3s-0.2,0-8.6,8.3c-8.4-8.3-8.6-8.3-8.6-8.3
	s-0.2,0-8.6,8.3c-8.4-8.3-8.4-8.3-8.4-8.3l-4.6,4.1c0,0-0.5,0-1.8,0c-0.1,0-0.2,0-0.4,0c-0.3,0-0.6,0-0.9,0s-0.6,0-1,0
	c-0.6,0-1.4,0-2.2,0c-0.6,0-1.2,0-1.9,0h-45.2l22.6-39c0.4-0.6,0.7-1.2,1-1.7c0.4-0.7,0.8-1.4,1.1-1.9c0.2-0.3,0.4-0.6,0.5-0.9
	c0.2-0.3,0.3-0.6,0.5-0.8c0.1-0.1,0.1-0.2,0.2-0.3c0.6-1.1,0.9-1.6,0.9-1.6l-1.3-6.1c0,0,0,0,11.4-3.1c-3.1-11.4-3-11.6-3-11.6
	s0.1-0.2,11.5-3.2c-3.1-11.4-3-11.6-3-11.6s0.1-0.2,11.5-3.2c-3.1-11.4-3-11.6-3-11.6c5.5-1.5,5.7-1.6,5.7-1.6
	c0.4-0.6,0.9-1.3,1.1-1.8c0.4-0.7,0.8-1.4,1.1-1.9c0.2-0.3,0.4-0.6,0.5-0.9c0.2-0.3,0.3-0.6,0.5-0.8c0.1-0.1,0.1-0.2,0.2-0.3
	c0.6-1.1,0.6-1.1,0.6-1.1L385.2,19.8"/>
<text transform="matrix(1.1751 0 0 1 385.1797 181.2715)" class="st16 st19">P</text>
<text transform="matrix(1.0043 0 0 1 325.7754 88.4673)" class="st16 st19">R</text>
<text transform="matrix(1.0043 0 0 1 383.8623 16.7114)" class="st16 st20">A</text>
<text transform="matrix(1.0043 0 0 1 292.5361 167.8345)" class="st16 st20">B</text>
<text transform="matrix(1.0043 0 0 1 11.77 172.0757)" class="st16 st20">B</text>
<text transform="matrix(1.0043 0 0 1 99.6484 23.5669)" class="st16 st20">A</text>
<text transform="matrix(1.0043 0 0 1 186.248 168.9673)" class="st16 st20">C</text>
<text transform="matrix(1.0043 0 0 1 473.0986 168.9673)" class="st16 st20">C</text>
<line class="st21" x1="219.2" y1="100.6" x2="258.7" y2="100.6"/>
<g>
	<g>
		<line class="st15" x1="215" y1="93.8" x2="270.8" y2="93.8"/>
		<g>
			<polygon points="277.8,93.8 267.9,97.9 270.2,93.8 267.9,89.8 			"/>
		</g>
	</g>
</g>
<text transform="matrix(1.1751 0 0 1 428.5195 88.4678)" class="st16 st19">Q</text>
</svg>
